<svg xmlns="http://www.w3.org/2000/svg" xmlns:xlink="http://www.w3.org/1999/xlink" width="2000" zoomAndPan="magnify" viewBox="0 0 1500 1499.999933" height="2000" preserveAspectRatio="xMidYMid meet" version="1.0"><defs><g/><clipPath id="c1a2cc1818"><path d="M 434 292.101562 L 1066 292.101562 L 1066 779 L 434 779 Z M 434 292.101562 " clip-rule="nonzero"/></clipPath><clipPath id="f2cbd05c99"><rect x="0" width="1231" y="0" height="213"/></clipPath><clipPath id="3a44af25b6"><rect x="0" width="184" y="0" height="73"/></clipPath></defs><path fill="#211d1d" d="M 383.667969 736.726562 C 297.714844 687.097656 123.304688 586.398438 122.054688 585.675781 C 196.964844 542.425781 371.375 441.726562 383.667969 434.628906 C 408.359375 420.371094 386.070312 382.066406 361.304688 396.363281 C 275.347656 445.992188 189.394531 495.621094 103.433594 545.25 C 91.140625 552.347656 78.847656 559.445312 66.550781 566.542969 C 52.175781 574.84375 52.175781 596.511719 66.550781 604.808594 C 152.507812 654.4375 349.007812 767.890625 361.304688 774.988281 C 386.046875 789.277344 408.386719 750.996094 383.667969 736.726562 " fill-opacity="1" fill-rule="nonzero"/><path fill="#211d1d" d="M 1433.578125 566.542969 C 1347.617188 516.917969 1151.117188 403.460938 1138.824219 396.363281 C 1114.082031 382.078125 1091.742188 420.359375 1116.457031 434.628906 C 1202.410156 484.257812 1376.820312 584.957031 1378.074219 585.679688 C 1303.164062 628.929688 1128.753906 729.628906 1116.457031 736.726562 C 1091.769531 750.980469 1114.054688 789.289062 1138.824219 774.988281 C 1224.777344 725.363281 1421.28125 611.910156 1433.578125 604.8125 C 1447.953125 596.511719 1447.953125 574.84375 1433.578125 566.542969 " fill-opacity="1" fill-rule="nonzero"/><g clip-path="url(#c1a2cc1818)"><path fill="#62b0c6" d="M 802.613281 530.367188 L 754.9375 530.367188 L 754.9375 482.628906 L 802.613281 482.628906 Z M 802.613281 587.855469 L 754.9375 587.855469 L 754.9375 540.117188 L 802.613281 540.117188 Z M 697.453125 587.855469 L 697.453125 540.117188 L 745.1875 540.117188 L 745.1875 587.855469 Z M 697.453125 482.628906 L 745.1875 482.628906 L 745.1875 530.367188 L 697.453125 530.367188 Z M 1061.28125 539.390625 C 1035.015625 518.210938 1008.753906 497.039062 982.476562 475.859375 L 982.476562 410.300781 C 982.476562 405.933594 979.136719 402.367188 974.988281 402.367188 L 939.261719 402.367188 C 935.105469 402.367188 931.765625 405.933594 931.765625 410.300781 L 931.765625 434.96875 C 909.652344 417.140625 887.523438 399.308594 865.328125 381.476562 C 830.023438 353.03125 794.679688 324.503906 759.308594 296.054688 C 756.613281 293.285156 753.339844 292.199219 750.058594 292.339844 C 746.796875 292.199219 743.507812 293.285156 740.816406 296.054688 C 675.472656 348.664062 610.132812 401.273438 544.871094 453.964844 C 509.496094 482.410156 474.128906 510.863281 438.839844 539.390625 C 429.53125 546.8125 437.539062 561.730469 448.089844 561.730469 L 517.578125 561.730469 L 517.578125 765.039062 C 517.578125 772.175781 523.617188 778.132812 530.753906 778.132812 L 969.386719 778.132812 C 976.507812 778.132812 982.476562 772.175781 982.476562 765.039062 L 982.476562 561.730469 L 1052.035156 561.730469 C 1062.601562 561.730469 1070.59375 546.8125 1061.28125 539.390625 " fill-opacity="1" fill-rule="nonzero"/></g><g transform="matrix(1, 0, 0, 1, 141, 925)"><g clip-path="url(#f2cbd05c99)"><g fill="#211d1d" fill-opacity="1"><g transform="translate(3.196098, 149.531998)"><g><path d="M 84.171875 -28.671875 C 89.003906 -28.671875 93.695312 -29.398438 98.25 -30.859375 C 102.8125 -32.328125 106.160156 -33.738281 108.296875 -35.09375 L 111.5 -37.28125 L 125 -10.296875 C 124.550781 -9.953125 123.929688 -9.5 123.140625 -8.9375 C 122.359375 -8.375 120.53125 -7.332031 117.65625 -5.8125 C 114.789062 -4.300781 111.726562 -2.984375 108.46875 -1.859375 C 105.207031 -0.734375 100.929688 0.273438 95.640625 1.171875 C 90.359375 2.078125 84.90625 2.53125 79.28125 2.53125 C 66.351562 2.53125 54.097656 -0.644531 42.515625 -7 C 30.929688 -13.351562 21.59375 -22.097656 14.5 -33.234375 C 7.414062 -44.367188 3.875 -56.398438 3.875 -69.328125 C 3.875 -79.109375 5.953125 -88.5 10.109375 -97.5 C 14.273438 -106.5 19.816406 -114.203125 26.734375 -120.609375 C 33.648438 -127.023438 41.71875 -132.144531 50.9375 -135.96875 C 60.164062 -139.789062 69.613281 -141.703125 79.28125 -141.703125 C 88.28125 -141.703125 96.570312 -140.628906 104.15625 -138.484375 C 111.75 -136.347656 117.125 -134.210938 120.28125 -132.078125 L 125 -128.875 L 111.5 -101.890625 C 110.71875 -102.566406 109.535156 -103.378906 107.953125 -104.328125 C 106.378906 -105.285156 103.226562 -106.550781 98.5 -108.125 C 93.78125 -109.695312 89.003906 -110.484375 84.171875 -110.484375 C 76.523438 -110.484375 69.664062 -109.242188 63.59375 -106.765625 C 57.519531 -104.296875 52.710938 -101.035156 49.171875 -96.984375 C 45.628906 -92.941406 42.929688 -88.585938 41.078125 -83.921875 C 39.222656 -79.253906 38.296875 -74.503906 38.296875 -69.671875 C 38.296875 -59.097656 42.257812 -49.617188 50.1875 -41.234375 C 58.113281 -32.859375 69.441406 -28.671875 84.171875 -28.671875 Z M 84.171875 -28.671875 "/></g></g></g><g fill="#211d1d" fill-opacity="1"><g transform="translate(142.848847, 149.531998)"><g><path d="M 3.875 -69.671875 C 3.875 -89.796875 10.734375 -106.832031 24.453125 -120.78125 C 38.179688 -134.726562 54.710938 -141.703125 74.046875 -141.703125 C 93.503906 -141.703125 110.035156 -134.753906 123.640625 -120.859375 C 137.253906 -106.972656 144.0625 -89.910156 144.0625 -69.671875 C 144.0625 -49.316406 137.367188 -32.191406 123.984375 -18.296875 C 110.597656 -4.410156 93.953125 2.53125 74.046875 2.53125 C 53.691406 2.53125 36.90625 -4.351562 23.6875 -18.125 C 10.476562 -31.90625 3.875 -49.085938 3.875 -69.671875 Z M 38.125 -69.671875 C 38.125 -62.359375 39.25 -55.691406 41.5 -49.671875 C 43.75 -43.660156 47.679688 -38.570312 53.296875 -34.40625 C 58.921875 -30.25 65.835938 -28.171875 74.046875 -28.171875 C 85.859375 -28.171875 94.769531 -32.21875 100.78125 -40.3125 C 106.800781 -48.414062 109.8125 -58.203125 109.8125 -69.671875 C 109.8125 -81.023438 106.742188 -90.78125 100.609375 -98.9375 C 94.484375 -107.09375 85.628906 -111.171875 74.046875 -111.171875 C 62.578125 -111.171875 53.722656 -107.09375 47.484375 -98.9375 C 41.242188 -90.78125 38.125 -81.023438 38.125 -69.671875 Z M 38.125 -69.671875 "/></g></g></g><g fill="#211d1d" fill-opacity="1"><g transform="translate(303.415028, 149.531998)"><g><path d="M 10.125 -139.171875 L 50.4375 -139.171875 C 69.78125 -139.171875 86.3125 -132.5625 100.03125 -119.34375 C 113.75 -106.132812 120.609375 -89.578125 120.609375 -69.671875 C 120.609375 -49.648438 113.773438 -33.03125 100.109375 -19.8125 C 86.453125 -6.601562 69.894531 0 50.4375 0 L 10.125 0 Z M 41.828125 -28.34375 L 46.71875 -28.34375 C 58.300781 -28.34375 67.773438 -32.25 75.140625 -40.0625 C 82.515625 -47.875 86.257812 -57.6875 86.375 -69.5 C 86.375 -81.3125 82.6875 -91.148438 75.3125 -99.015625 C 67.945312 -106.890625 58.414062 -110.828125 46.71875 -110.828125 L 41.828125 -110.828125 Z M 41.828125 -28.34375 "/></g></g></g><g fill="#211d1d" fill-opacity="1"><g transform="translate(440.537874, 149.531998)"><g><path d="M 89.734375 -139.171875 L 89.734375 -111.328125 L 41.828125 -111.328125 L 41.828125 -83.671875 L 87.71875 -83.671875 L 87.71875 -55.828125 L 41.828125 -55.828125 L 41.828125 -27.828125 L 89.734375 -27.828125 L 89.734375 0 L 10.125 0 L 10.125 -139.171875 Z M 89.734375 -139.171875 "/></g></g></g><g fill="#62b0c6" fill-opacity="1"><g transform="translate(551.030441, 149.531998)"><g><path d="M 41.828125 -55.828125 L 41.828125 0 L 10.125 0 L 10.125 -139.171875 L 41.828125 -139.171875 L 41.828125 -83.671875 L 86.703125 -83.671875 L 86.703125 -139.171875 L 118.421875 -139.171875 L 118.421875 0 L 86.703125 0 L 86.703125 -55.828125 Z M 41.828125 -55.828125 "/></g></g></g><g fill="#62b0c6" fill-opacity="1"><g transform="translate(692.201058, 149.531998)"><g><path d="M 3.875 -69.671875 C 3.875 -89.796875 10.734375 -106.832031 24.453125 -120.78125 C 38.179688 -134.726562 54.710938 -141.703125 74.046875 -141.703125 C 93.503906 -141.703125 110.035156 -134.753906 123.640625 -120.859375 C 137.253906 -106.972656 144.0625 -89.910156 144.0625 -69.671875 C 144.0625 -49.316406 137.367188 -32.191406 123.984375 -18.296875 C 110.597656 -4.410156 93.953125 2.53125 74.046875 2.53125 C 53.691406 2.53125 36.90625 -4.351562 23.6875 -18.125 C 10.476562 -31.90625 3.875 -49.085938 3.875 -69.671875 Z M 38.125 -69.671875 C 38.125 -62.359375 39.25 -55.691406 41.5 -49.671875 C 43.75 -43.660156 47.679688 -38.570312 53.296875 -34.40625 C 58.921875 -30.25 65.835938 -28.171875 74.046875 -28.171875 C 85.859375 -28.171875 94.769531 -32.21875 100.78125 -40.3125 C 106.800781 -48.414062 109.8125 -58.203125 109.8125 -69.671875 C 109.8125 -81.023438 106.742188 -90.78125 100.609375 -98.9375 C 94.484375 -107.09375 85.628906 -111.171875 74.046875 -111.171875 C 62.578125 -111.171875 53.722656 -107.09375 47.484375 -98.9375 C 41.242188 -90.78125 38.125 -81.023438 38.125 -69.671875 Z M 38.125 -69.671875 "/></g></g></g><g fill="#62b0c6" fill-opacity="1"><g transform="translate(852.767239, 149.531998)"><g><path d="M 117.0625 -139.171875 L 117.0625 -49.421875 C 117.0625 -32.328125 112.453125 -19.394531 103.234375 -10.625 C 94.015625 -1.851562 80.519531 2.53125 62.75 2.53125 C 44.976562 2.53125 31.484375 -1.851562 22.265625 -10.625 C 13.046875 -19.394531 8.4375 -32.328125 8.4375 -49.421875 L 8.4375 -139.171875 L 40.140625 -139.171875 L 40.140625 -58.703125 C 40.140625 -47.453125 41.910156 -39.632812 45.453125 -35.25 C 49.003906 -30.863281 54.769531 -28.671875 62.75 -28.671875 C 70.738281 -28.671875 76.503906 -30.863281 80.046875 -35.25 C 83.585938 -39.632812 85.359375 -47.453125 85.359375 -58.703125 L 85.359375 -139.171875 Z M 117.0625 -139.171875 "/></g></g></g><g fill="#62b0c6" fill-opacity="1"><g transform="translate(990.902044, 149.531998)"><g><path d="M 61.40625 -141.703125 C 68.9375 -141.703125 76.300781 -140.601562 83.5 -138.40625 C 90.695312 -136.21875 96.039062 -134.050781 99.53125 -131.90625 L 104.59375 -128.546875 L 91.765625 -103.234375 C 90.753906 -103.910156 89.347656 -104.78125 87.546875 -105.84375 C 85.742188 -106.914062 82.367188 -108.351562 77.421875 -110.15625 C 72.472656 -111.957031 67.863281 -112.859375 63.59375 -112.859375 C 58.3125 -112.859375 54.234375 -111.734375 51.359375 -109.484375 C 48.492188 -107.234375 47.0625 -104.195312 47.0625 -100.375 C 47.0625 -98.457031 47.734375 -96.679688 49.078125 -95.046875 C 50.429688 -93.421875 52.738281 -91.679688 56 -89.828125 C 59.257812 -87.972656 62.125 -86.484375 64.59375 -85.359375 C 67.070312 -84.234375 70.898438 -82.546875 76.078125 -80.296875 C 85.078125 -76.472656 92.753906 -71.269531 99.109375 -64.6875 C 105.460938 -58.113281 108.640625 -50.664062 108.640625 -42.34375 C 108.640625 -34.351562 107.203125 -27.378906 104.328125 -21.421875 C 101.460938 -15.460938 97.523438 -10.796875 92.515625 -7.421875 C 87.515625 -4.046875 81.976562 -1.546875 75.90625 0.078125 C 69.832031 1.710938 63.253906 2.53125 56.171875 2.53125 C 50.097656 2.53125 44.132812 1.910156 38.28125 0.671875 C 32.4375 -0.566406 27.546875 -2.113281 23.609375 -3.96875 C 19.679688 -5.820312 16.140625 -7.644531 12.984375 -9.4375 C 9.835938 -11.238281 7.535156 -12.757812 6.078125 -14 L 3.875 -15.859375 L 19.734375 -42.515625 C 21.085938 -41.390625 22.941406 -39.953125 25.296875 -38.203125 C 27.660156 -36.460938 31.847656 -34.128906 37.859375 -31.203125 C 43.878906 -28.285156 49.195312 -26.828125 53.8125 -26.828125 C 67.195312 -26.828125 73.890625 -31.378906 73.890625 -40.484375 C 73.890625 -42.398438 73.410156 -44.171875 72.453125 -45.796875 C 71.492188 -47.429688 69.804688 -49.0625 67.390625 -50.6875 C 64.972656 -52.320312 62.835938 -53.613281 60.984375 -54.5625 C 59.128906 -55.519531 56.09375 -56.984375 51.875 -58.953125 C 47.65625 -60.921875 44.535156 -62.410156 42.515625 -63.421875 C 34.078125 -67.585938 27.550781 -72.789062 22.9375 -79.03125 C 18.332031 -85.269531 16.03125 -91.988281 16.03125 -99.1875 C 16.03125 -111.664062 20.640625 -121.867188 29.859375 -129.796875 C 39.078125 -137.734375 49.59375 -141.703125 61.40625 -141.703125 Z M 61.40625 -141.703125 "/></g></g></g><g fill="#62b0c6" fill-opacity="1"><g transform="translate(1116.893602, 149.531998)"><g><path d="M 89.734375 -139.171875 L 89.734375 -111.328125 L 41.828125 -111.328125 L 41.828125 -83.671875 L 87.71875 -83.671875 L 87.71875 -55.828125 L 41.828125 -55.828125 L 41.828125 -27.828125 L 89.734375 -27.828125 L 89.734375 0 L 10.125 0 L 10.125 -139.171875 Z M 89.734375 -139.171875 "/></g></g></g></g></g><g transform="matrix(1, 0, 0, 1, 671, 1128)"><g clip-path="url(#3a44af25b6)"><g fill="#737373" fill-opacity="1"><g transform="translate(4.28131, 53.328659)"><g><path d="M 19.21875 -14.296875 L 24.5 -49.28125 L 35.265625 -49.28125 L 35.265625 0 L 27.9375 0 L 27.9375 -35.34375 L 22.59375 0 L 15.28125 0 L 9.5 -34.84375 L 9.5 0 L 2.75 0 L 2.75 -49.28125 L 13.515625 -49.28125 Z M 19.21875 -14.296875 "/></g></g></g><g fill="#737373" fill-opacity="1"><g transform="translate(70.523324, 53.328659)"><g><path d="M 14.5 -49.28125 C 18.53125 -49.28125 21.445312 -48.335938 23.25 -46.453125 C 25.0625 -44.578125 25.96875 -41.738281 25.96875 -37.9375 L 25.96875 -36.1875 C 25.96875 -33.644531 25.566406 -31.550781 24.765625 -29.90625 C 23.972656 -28.269531 22.707031 -27.050781 20.96875 -26.25 C 23.082031 -25.457031 24.570312 -24.15625 25.4375 -22.34375 C 26.3125 -20.539062 26.75 -18.328125 26.75 -15.703125 L 26.75 -11.6875 C 26.75 -7.882812 25.757812 -4.984375 23.78125 -2.984375 C 21.8125 -0.992188 18.882812 0 15 0 L 2.8125 0 L 2.8125 -49.28125 Z M 10.5625 -22.171875 L 10.5625 -7.046875 L 15 -7.046875 C 16.3125 -7.046875 17.304688 -7.394531 17.984375 -8.09375 C 18.660156 -8.800781 19 -10.066406 19 -11.890625 L 19 -16.1875 C 19 -18.488281 18.613281 -20.0625 17.84375 -20.90625 C 17.070312 -21.75 15.789062 -22.171875 14 -22.171875 Z M 10.5625 -42.234375 L 10.5625 -29.21875 L 13.578125 -29.21875 C 15.035156 -29.21875 16.175781 -29.59375 17 -30.34375 C 17.820312 -31.09375 18.234375 -32.453125 18.234375 -34.421875 L 18.234375 -37.171875 C 18.234375 -38.953125 17.914062 -40.238281 17.28125 -41.03125 C 16.644531 -41.832031 15.648438 -42.234375 14.296875 -42.234375 Z M 10.5625 -42.234375 "/></g></g></g><g fill="#737373" fill-opacity="1"><g transform="translate(127.264827, 53.328659)"><g><path d="M 1.828125 -37.453125 C 1.828125 -41.441406 2.773438 -44.503906 4.671875 -46.640625 C 6.578125 -48.773438 9.429688 -49.84375 13.234375 -49.84375 C 17.035156 -49.84375 19.882812 -48.773438 21.78125 -46.640625 C 23.6875 -44.503906 24.640625 -41.441406 24.640625 -37.453125 L 24.640625 -35.90625 L 17.3125 -35.90625 L 17.3125 -37.9375 C 17.3125 -39.71875 16.972656 -40.972656 16.296875 -41.703125 C 15.617188 -42.429688 14.664062 -42.796875 13.4375 -42.796875 C 12.21875 -42.796875 11.269531 -42.429688 10.59375 -41.703125 C 9.914062 -40.972656 9.578125 -39.71875 9.578125 -37.9375 C 9.578125 -36.25 9.953125 -34.757812 10.703125 -33.46875 C 11.453125 -32.175781 12.390625 -30.953125 13.515625 -29.796875 C 14.640625 -28.648438 15.847656 -27.503906 17.140625 -26.359375 C 18.429688 -25.210938 19.640625 -23.957031 20.765625 -22.59375 C 21.890625 -21.226562 22.828125 -19.675781 23.578125 -17.9375 C 24.328125 -16.207031 24.703125 -14.171875 24.703125 -11.828125 C 24.703125 -7.835938 23.726562 -4.773438 21.78125 -2.640625 C 19.832031 -0.503906 16.957031 0.5625 13.15625 0.5625 C 9.363281 0.5625 6.492188 -0.503906 4.546875 -2.640625 C 2.597656 -4.773438 1.625 -7.835938 1.625 -11.828125 L 1.625 -14.859375 L 8.9375 -14.859375 L 8.9375 -11.328125 C 8.9375 -9.546875 9.300781 -8.300781 10.03125 -7.59375 C 10.757812 -6.894531 11.734375 -6.546875 12.953125 -6.546875 C 14.171875 -6.546875 15.144531 -6.894531 15.875 -7.59375 C 16.601562 -8.300781 16.96875 -9.546875 16.96875 -11.328125 C 16.96875 -13.015625 16.59375 -14.503906 15.84375 -15.796875 C 15.09375 -17.085938 14.148438 -18.304688 13.015625 -19.453125 C 11.890625 -20.609375 10.679688 -21.757812 9.390625 -22.90625 C 8.109375 -24.0625 6.898438 -25.316406 5.765625 -26.671875 C 4.640625 -28.035156 3.703125 -29.582031 2.953125 -31.3125 C 2.203125 -33.050781 1.828125 -35.097656 1.828125 -37.453125 Z M 1.828125 -37.453125 "/></g></g></g></g></g></svg>